<svg width="26" height="29" viewBox="0 0 26 29" fill="none" xmlns="http://www.w3.org/2000/svg">
<g id="c 1" clip-path="url(#clip0_120_234)">
<path id="Vector" d="M19.3141 13.8579H20.1056L20.0027 14.8398H19.214L19.3141 13.8579ZM25.9958 8.34926V20.6507C25.9689 21.4276 25.58 22.1221 24.8966 22.5835L14.4026 28.7342C13.7981 29.0886 12.8088 29.0886 12.2043 28.7342L1.71026 22.5835C1.07336 22.1596 0.658115 21.4761 0.611084 20.6507V8.34926C0.611084 7.64058 1.10567 6.77078 1.71026 6.41648L12.2043 0.265786C12.8088 -0.0885952 13.7981 -0.0885952 14.4026 0.265786L24.8966 6.41648C25.5314 6.85153 25.9712 7.6036 25.9958 8.34926ZM20.6313 18.7975L16.9694 16.6463C14.5266 20.616 9.13181 18.6761 9.07265 14.5C9.26964 9.96888 14.7585 8.64165 16.9691 12.3535L20.6311 10.2023C15.8587 2.40845 4.79215 6.1122 4.84187 14.5C5.05398 23.5429 16.4255 26.2096 20.6313 18.7975ZM21.5056 13.1742H20.8777L20.9909 12.0645H20.2935L20.1772 13.1742H19.3838L19.497 12.0645H18.7996L18.6833 13.1742H18.0185V13.8579H18.6117L18.5088 14.8398H17.8232V15.5236H18.4371L18.31 16.7373H19.0205L19.1443 15.5236H19.931L19.8039 16.7373H20.5144L20.6381 15.5236H21.3103V14.8398H20.7079L20.808 13.8579H21.5056V13.1742Z" fill="white"/>
</g>
<defs>
<clipPath id="clip0_120_234">
<rect width="25.3858" height="29" fill="white" transform="translate(0.611084)"/>
</clipPath>
</defs>
</svg>
