<svg width="21" height="22" viewBox="0 0 21 22" fill="none" xmlns="http://www.w3.org/2000/svg">
<g id="database-solid 1" clip-path="url(#clip0_138_297)">
<path id="Vector" d="M20.9136 3.4375V5.5C20.9136 7.39922 16.3668 8.9375 10.7593 8.9375C5.15176 8.9375 0.60498 7.39922 0.60498 5.5V3.4375C0.60498 1.53828 5.15176 0 10.7593 0C16.3668 0 20.9136 1.53828 20.9136 3.4375ZM18.4294 9.22539C19.3723 8.90742 20.2382 8.49922 20.9136 7.99648V12.375C20.9136 14.2742 16.3668 15.8125 10.7593 15.8125C5.15176 15.8125 0.60498 14.2742 0.60498 12.375V7.99648C1.28042 8.50352 2.14626 8.90742 3.08916 9.22539C5.12456 9.91289 7.8354 10.3125 10.7593 10.3125C13.6832 10.3125 16.394 9.91289 18.4294 9.22539ZM0.60498 14.8715C1.28042 15.3785 2.14626 15.7824 3.08916 16.1004C5.12456 16.7879 7.8354 17.1875 10.7593 17.1875C13.6832 17.1875 16.394 16.7879 18.4294 16.1004C19.3723 15.7824 20.2382 15.3742 20.9136 14.8715V18.5625C20.9136 20.4617 16.3668 22 10.7593 22C5.15176 22 0.60498 20.4617 0.60498 18.5625V14.8715Z" fill="white"/>
</g>
<defs>
<clipPath id="clip0_138_297">
<rect width="20.3086" height="22" fill="white" transform="translate(0.60498)"/>
</clipPath>
</defs>
</svg>
