<svg width="26" height="32" viewBox="0 0 26 32" fill="none" xmlns="http://www.w3.org/2000/svg">
<g id="figma 1">
<path id="Vector" d="M1.53064 5.9875C1.53064 2.68125 4.25327 0 7.61054 0H18.0441C21.4014 0 24.124 2.68125 24.124 5.9875C24.124 8.08125 23.0324 9.925 21.376 10.9937C23.0324 12.0625 24.124 13.9062 24.124 16C24.124 19.3062 21.4014 21.9875 18.0441 21.9875H17.9108C16.3369 21.9875 14.9026 21.4 13.8237 20.4312V25.95C13.8237 29.3 11.0313 32 7.64227 32C4.29135 32 1.53064 29.325 1.53064 26.0125C1.53064 23.9188 2.62223 22.075 4.27231 21.0063C2.62223 19.9375 1.53064 18.0938 1.53064 16C1.53064 13.9062 2.62223 12.0625 4.27231 10.9937C2.62223 9.925 1.53064 8.08125 1.53064 5.9875ZM11.8309 11.975H7.61054C5.3512 11.975 3.52343 13.775 3.52343 16C3.52343 18.2125 5.33851 20.0125 7.58515 20.025C7.5915 20.025 7.60419 20.025 7.61054 20.025H11.8309V11.975ZM13.8237 16C13.8237 18.225 15.6515 20.025 17.9108 20.025H18.0441C20.2971 20.025 22.1312 18.225 22.1312 16C22.1312 13.775 20.2971 11.975 18.0441 11.975H17.9108C15.6515 11.975 13.8237 13.775 13.8237 16ZM7.61054 21.9875C7.60419 21.9875 7.5915 21.9875 7.58515 21.9875C5.33851 22 3.52343 23.8 3.52343 26.0125C3.52343 28.2313 5.37659 30.0375 7.64227 30.0375C9.94603 30.0375 11.8309 28.2 11.8309 25.95V21.9875H7.61054ZM7.61054 1.9625C5.3512 1.9625 3.52343 3.7625 3.52343 5.9875C3.52343 8.2125 5.3512 10.0125 7.61054 10.0125H11.8309V1.9625H7.61054ZM13.8237 10.0125H18.0441C20.2971 10.0125 22.1312 8.2125 22.1312 5.9875C22.1312 3.7625 20.2971 1.9625 18.0441 1.9625H13.8237V10.0125Z" fill="white"/>
</g>
</svg>
