<svg width="29" height="31" viewBox="0 0 29 31" fill="none" xmlns="http://www.w3.org/2000/svg">
<g id="linux 1" clip-path="url(#clip0_120_283)">
<path id="Vector" d="M14.1236 7.46545C14.1848 7.49572 14.2338 7.56838 14.3072 7.56838C14.3745 7.56838 14.4786 7.54416 14.4847 7.47756C14.4969 7.39279 14.3684 7.3383 14.2888 7.30197C14.1848 7.25959 14.0502 7.24142 13.9522 7.29592C13.9278 7.30803 13.9033 7.3383 13.9155 7.36252C13.9339 7.44123 14.0563 7.42912 14.1236 7.46545ZM12.7834 7.56838C12.8568 7.56838 12.9058 7.49572 12.967 7.46545C13.0343 7.42912 13.1567 7.44123 13.1812 7.36857C13.1934 7.34435 13.1689 7.31408 13.1444 7.30197C13.0465 7.24748 12.9119 7.26564 12.8078 7.30803C12.7283 7.34435 12.5998 7.39885 12.612 7.48361C12.6181 7.54416 12.7222 7.57443 12.7834 7.56838ZM26.3142 24.4488C26.0939 24.2067 25.9899 23.7465 25.8736 23.2561C25.7634 22.7656 25.6349 22.2389 25.231 21.8998C25.1515 21.8332 25.0719 21.7727 24.9862 21.7242C24.9067 21.6758 24.821 21.6334 24.7353 21.6031C25.2983 19.9502 25.078 18.3033 24.5089 16.8139C23.8112 14.9914 22.5934 13.399 21.6632 12.3092C20.6167 11.0074 19.6008 9.77228 19.6192 7.94982C19.6498 5.17072 19.9313 0.0060722 14.9804 1.75086e-05C8.71371 -0.0120919 10.2804 6.26056 10.2131 8.18596C10.109 9.60275 9.82139 10.7168 8.8361 12.1033C7.67946 13.4656 6.0516 15.6635 5.28051 17.9582C4.91332 19.042 4.74196 20.144 4.90108 21.1854C4.50329 21.5365 4.20342 22.0754 3.88519 22.4084C3.62816 22.6688 3.25485 22.7656 2.84483 22.911C2.4348 23.0563 1.98806 23.2742 1.71267 23.7889C1.58415 24.025 1.54131 24.2793 1.54131 24.5397C1.54131 24.7758 1.57803 25.018 1.61475 25.2541C1.68819 25.7445 1.76775 26.2047 1.66371 26.5135C1.34548 27.3854 1.30264 27.9908 1.52907 28.4328C1.76163 28.8748 2.22673 29.0686 2.75915 29.1776C3.81788 29.3955 5.25603 29.341 6.38819 29.9344C7.59991 30.5641 8.82998 30.7881 9.80915 30.5641C10.519 30.4067 11.1004 29.9828 11.3942 29.341C12.1592 29.335 13.0037 29.0141 14.35 28.9414C15.2619 28.8688 16.4063 29.2623 17.722 29.1897C17.7588 29.3289 17.8077 29.4682 17.875 29.5953V29.6014C18.383 30.6125 19.3315 31.0727 20.3413 30.994C21.3572 30.9153 22.4282 30.3279 23.2972 29.3047C24.1295 28.3117 25.5003 27.9 26.4121 27.3551C26.865 27.0826 27.2322 26.7436 27.2628 26.2471C27.2873 25.7506 26.9935 25.1996 26.3142 24.4488ZM14.3011 5.28576C14.9008 3.94162 16.394 3.96584 16.9938 5.26154C17.3916 6.12131 17.2141 7.13244 16.7306 7.70763C16.6327 7.6592 16.3696 7.55021 15.9595 7.41095C16.0269 7.3383 16.1493 7.24748 16.1982 7.13244C16.492 6.41799 16.186 5.49767 15.6413 5.47951C15.1946 5.44924 14.7907 6.13342 14.9192 6.87209C14.6683 6.75099 14.3439 6.66017 14.1236 6.60568C14.0624 6.18791 14.1052 5.7217 14.3011 5.28576ZM11.8103 4.58947C12.4284 4.58947 13.0832 5.44924 12.9792 6.61779C12.765 6.67834 12.5447 6.76916 12.355 6.89631C12.4284 6.35744 12.153 5.67931 11.7675 5.70959C11.2534 5.75197 11.1677 6.99318 11.6573 7.41095C11.7185 7.45939 11.7736 7.39885 11.2963 7.74396C10.3416 6.85998 10.6537 4.58947 11.8103 4.58947ZM10.978 8.26467C11.3575 7.98615 11.8103 7.6592 11.8409 7.62892C12.1286 7.36252 12.6671 6.76916 13.5483 6.76916C13.9828 6.76916 14.503 6.90842 15.1334 7.30803C15.5189 7.55627 15.8249 7.57443 16.5164 7.87111C17.0305 8.08302 17.3549 8.45842 17.159 8.97306C16.9999 9.40295 16.4858 9.84494 15.7698 10.069C15.0905 10.2869 14.5581 11.0377 13.4321 10.9711C13.1934 10.959 13.0037 10.9106 12.8446 10.844C12.355 10.632 12.098 10.2143 11.6206 9.93576C11.0943 9.64513 10.8128 9.30607 10.721 9.00939C10.6353 8.71271 10.721 8.46447 10.978 8.26467ZM11.18 28.4873C11.0147 30.6125 8.4934 30.5701 6.57178 29.5772C4.74196 28.6205 2.3736 29.1836 1.89014 28.2512C1.74327 27.9666 1.74327 27.4822 2.04926 26.6528V26.6406C2.19613 26.1805 2.08597 25.6719 2.01254 25.1936C1.9391 24.7213 1.90238 24.2854 2.06762 23.9826C2.28181 23.577 2.5878 23.4317 2.97334 23.2985C3.60368 23.0744 3.69548 23.0926 4.17282 22.699C4.50941 22.3539 4.7542 21.918 5.04795 21.6092C5.36006 21.2762 5.65993 21.1188 6.13116 21.1914C6.62686 21.2641 7.05524 21.6031 7.47139 22.1602L8.67087 24.3156C9.25225 25.5205 11.3085 27.2461 11.18 28.4873ZM11.0943 26.9192C10.8434 26.5195 10.5068 26.0957 10.2131 25.7324C10.6476 25.7324 11.0821 25.5992 11.2351 25.1936C11.3758 24.8182 11.2351 24.2914 10.7822 23.686C9.95603 22.584 8.43832 21.7182 8.43832 21.7182C7.61215 21.2096 7.14704 20.586 6.93285 19.9078C6.71866 19.2297 6.74926 18.4971 6.91449 17.7766C7.23272 16.3901 8.05277 15.0399 8.57907 14.1922C8.71983 14.0893 8.62803 14.386 8.04665 15.4516C7.52647 16.4264 6.55342 18.6787 7.88754 20.4406C7.92426 19.1873 8.22412 17.9098 8.73207 16.717C9.46644 15.058 11.0147 12.182 11.1371 9.89338C11.2045 9.94181 11.4187 10.0871 11.5166 10.1416C11.7981 10.3051 12.0123 10.5473 12.2877 10.7653C13.0465 11.3707 14.0318 11.3223 14.8825 10.8379C15.2619 10.626 15.5679 10.3838 15.8555 10.293C16.4614 10.1053 16.9448 9.77228 17.2202 9.38478C17.6914 11.2254 18.793 13.8834 19.4968 15.1791C19.8701 15.8694 20.6167 17.3285 20.9411 19.0904C21.143 19.0844 21.3694 19.1147 21.6081 19.1752C22.4526 17.0137 20.8921 14.6826 20.1822 14.0348C19.8946 13.7563 19.8823 13.6352 20.0231 13.6412C20.7942 14.3194 21.8101 15.6817 22.1772 17.2135C22.3486 17.9158 22.3792 18.6485 22.2017 19.375C23.2054 19.7867 24.3987 20.4588 24.0805 21.482C23.9459 21.476 23.8847 21.482 23.8235 21.482C24.0193 20.8705 23.5848 20.4164 22.4282 19.9018C21.2287 19.3811 20.225 19.3811 20.0843 20.6586C19.3438 20.9129 18.9644 21.5486 18.7746 22.3115C18.6033 22.9897 18.5543 23.807 18.5054 24.7274C18.4748 25.1936 18.2851 25.8172 18.0892 26.4832C16.1248 27.8697 13.3953 28.4752 11.0943 26.9192ZM26.8466 26.2229C26.7916 27.2401 24.3253 27.4278 22.9789 29.0383C22.1711 29.9889 21.1797 30.5156 20.3107 30.5822C19.4417 30.6488 18.689 30.2916 18.2483 29.4137C17.9607 28.7416 18.1015 28.0151 18.3157 27.2158C18.5421 26.3561 18.8787 25.4721 18.9215 24.7576C18.9705 23.8373 19.0256 23.032 19.1786 22.4145C19.3377 21.7908 19.5825 21.3731 20.017 21.1369C20.0353 21.1248 20.0598 21.1188 20.0782 21.1067C20.1271 21.9059 20.5249 22.7172 21.2287 22.8928C21.9998 23.0926 23.1075 22.4387 23.5787 21.9059C24.1295 21.8877 24.5395 21.8514 24.9618 22.2147C25.5676 22.7293 25.3963 24.0492 26.0082 24.7334C26.6569 25.4358 26.865 25.9141 26.8466 26.2229ZM11.2167 9.00334C11.3391 9.11838 11.5043 9.2758 11.7063 9.43322C12.1102 9.74806 12.6732 10.075 13.377 10.075C14.0869 10.075 14.7539 9.71779 15.3231 9.42111C15.623 9.26369 15.9901 8.99728 16.2288 8.79142C16.4675 8.58556 16.5899 8.40998 16.4185 8.39182C16.2472 8.37365 16.2594 8.54924 16.0513 8.7006C15.7821 8.89435 15.4577 9.14865 15.2007 9.29396C14.7478 9.54826 14.0073 9.91154 13.3709 9.91154C12.7344 9.91154 12.2265 9.62092 11.847 9.32424C11.6573 9.17287 11.4982 9.0215 11.3758 8.90646C11.284 8.8217 11.2595 8.62795 11.1127 8.60978C11.027 8.60373 11.0025 8.83381 11.2167 9.00334Z" fill="white"/>
</g>
<defs>
<clipPath id="clip0_120_283">
<rect width="27.4167" height="31" fill="white" transform="translate(0.611084)"/>
</clipPath>
</defs>
</svg>
