<svg width="37" height="29" viewBox="0 0 37 29" fill="none" xmlns="http://www.w3.org/2000/svg">
<g id="php 1" clip-path="url(#clip0_120_232)">
<path id="Vector" d="M18.2778 5.91897C28.0678 5.91897 35.596 10.0084 35.596 14.5C35.596 18.9916 28.0621 23.0811 18.2778 23.0811C8.48774 23.0811 0.959583 18.9916 0.959583 14.5C0.959583 10.0084 8.49345 5.91897 18.2778 5.91897ZM18.2778 4.96741C8.18502 4.96741 0 9.23245 0 14.5C0 19.7676 8.18502 24.0326 18.2778 24.0326C28.3705 24.0326 36.5556 19.7676 36.5556 14.5C36.5556 9.23245 28.3705 4.96741 18.2778 4.96741ZM12.4632 13.7354C12.0119 16.0293 10.4183 15.7914 8.45918 15.7914L9.2417 11.7926C11.4122 11.7926 12.8858 11.5604 12.4632 13.7354ZM5.5633 19.8412H7.65953L8.15646 17.3037C10.504 17.3037 11.9605 17.4737 13.3085 16.2219C14.7993 14.8625 15.1877 12.444 14.1253 11.2319C13.5713 10.5975 12.6802 10.286 11.4693 10.286H7.43106L5.5633 19.8412ZM16.1701 7.7428H18.2549L17.758 10.2803C19.5572 10.2803 21.2251 10.15 22.0304 10.8864C22.8758 11.6567 22.4702 12.6422 21.5564 17.2924H19.443C20.3226 12.7951 20.4882 12.4213 20.1684 12.0815C19.8599 11.753 19.1574 11.8209 17.461 11.8209L16.3872 17.2924H14.3024L16.1701 7.7428ZM28.8446 13.7354C28.3877 16.0633 26.7484 15.7914 24.8406 15.7914L25.6232 11.7926C27.8051 11.7926 29.2673 11.5604 28.8446 13.7354ZM21.9448 19.8412H24.0467L24.5436 17.3037C27.0111 17.3037 28.3763 17.4453 29.6957 16.2219C31.1865 14.8625 31.5749 12.444 30.5125 11.2319C29.9584 10.5975 29.0674 10.286 27.8565 10.286H23.8182L21.9448 19.8412Z" fill="white"/>
</g>
<defs>
<clipPath id="clip0_120_232">
<rect width="36.5556" height="29" fill="white"/>
</clipPath>
</defs>
</svg>
