<svg width="27" height="26" viewBox="0 0 27 26" fill="none" xmlns="http://www.w3.org/2000/svg">
<g id="react 1" clip-path="url(#clip0_120_228)">
<path id="Vector" d="M21.6571 8.99841C21.3786 8.90701 21.1002 8.82068 20.8217 8.73943C20.8682 8.55154 20.9094 8.36365 20.9507 8.17576C21.5849 5.14919 21.1672 2.71677 19.7595 1.91443C18.4034 1.14763 16.1912 1.9449 13.9533 3.86443C13.7316 4.05232 13.515 4.25037 13.3087 4.44841C13.1695 4.31638 13.0251 4.18435 12.8807 4.0574C10.5345 2.00583 8.18319 1.14255 6.77546 1.94998C5.42446 2.72185 5.02226 5.01208 5.58947 7.87615C5.64619 8.16052 5.70807 8.43982 5.78026 8.72419C5.45025 8.8156 5.12539 8.91716 4.82115 9.0238C2.06759 9.96326 0.0926514 11.4461 0.0926514 12.9797C0.0926514 14.564 2.1965 16.1535 5.05835 17.1183C5.29039 17.1945 5.52244 17.2707 5.75963 17.3367C5.68229 17.6414 5.61525 17.941 5.55338 18.2508C5.01194 21.0691 5.43478 23.3035 6.78578 24.0703C8.17803 24.8625 10.5191 24.05 12.7982 22.0847C12.9787 21.9273 13.1592 21.7648 13.3397 21.5922C13.5666 21.8105 13.8038 22.0187 14.041 22.2218C16.2479 24.0906 18.4291 24.8472 19.775 24.0804C21.1672 23.2883 21.621 20.8863 21.0332 17.9613C20.9868 17.7379 20.9352 17.5094 20.8785 17.2758C21.0435 17.2301 21.2033 17.1793 21.3632 17.1285C24.3385 16.1586 26.4939 14.5894 26.4939 12.9797C26.4939 11.441 24.4622 9.94802 21.6571 8.99841ZM14.6804 4.68708C16.5986 3.04177 18.3879 2.39685 19.2026 2.85896C20.0741 3.35154 20.4092 5.34216 19.8626 7.9574C19.8265 8.13005 19.7904 8.29763 19.744 8.46521C18.5993 8.2113 17.4391 8.02849 16.2737 7.92693C15.6034 6.9824 14.8712 6.07849 14.0771 5.23044C14.2782 5.04255 14.4741 4.86482 14.6804 4.68708ZM8.7143 15.6152C8.97729 16.057 9.24542 16.4988 9.52903 16.9304C8.72462 16.8441 7.92536 16.7172 7.13642 16.5496C7.3633 15.8183 7.64691 15.0617 7.97693 14.2898C8.21412 14.7367 8.45648 15.1785 8.7143 15.6152ZM7.15189 9.50622C7.89442 9.34372 8.68336 9.21169 9.50325 9.11013C9.22995 9.53162 8.96182 9.96326 8.70915 10.4C8.45648 10.8316 8.20897 11.2734 7.97693 11.7203C7.65207 10.9636 7.37877 10.2222 7.15189 9.50622ZM8.56477 13.0051C8.90509 12.3043 9.27636 11.6187 9.66825 10.9433C10.0601 10.2679 10.483 9.61287 10.9264 8.96794C11.6999 8.91208 12.4889 8.88162 13.2933 8.88162C14.0977 8.88162 14.8918 8.91208 15.6601 8.96794C16.0984 9.60779 16.5161 10.2629 16.9131 10.9332C17.3102 11.6035 17.6814 12.289 18.0321 12.9847C17.6866 13.6855 17.3153 14.3761 16.9183 15.0566C16.5264 15.732 16.1087 16.3871 15.6704 17.0371C14.9021 17.0929 14.1028 17.1183 13.2933 17.1183C12.4837 17.1183 11.6999 17.0929 10.9419 17.0472C10.4933 16.4023 10.0705 15.7422 9.67341 15.0668C9.27636 14.3914 8.91025 13.7058 8.56477 13.0051ZM17.8774 15.6051C18.1404 15.1582 18.3879 14.7062 18.6302 14.2492C18.9603 14.9855 19.249 15.732 19.5017 16.4988C18.7024 16.6765 17.8929 16.8136 17.0781 16.9051C17.3566 16.4785 17.6196 16.0418 17.8774 15.6051ZM18.6199 11.7203C18.3776 11.2734 18.1301 10.8265 17.8722 10.3898C17.6196 9.95818 17.3566 9.53162 17.0833 9.11013C17.9135 9.21169 18.7076 9.3488 19.4501 9.51638C19.2129 10.2679 18.9345 10.9992 18.6199 11.7203ZM13.3036 6.0074C13.845 6.5863 14.3555 7.19568 14.8299 7.82537C13.8089 7.77966 12.7828 7.77966 11.7618 7.82537C12.2671 7.17029 12.7879 6.56091 13.3036 6.0074ZM7.32205 2.89451C8.18834 2.39685 10.1117 3.10779 12.1382 4.87498C12.2671 4.98669 12.396 5.10857 12.5301 5.23044C11.7309 6.07849 10.9935 6.9824 10.318 7.92693C9.15261 8.02849 7.99755 8.20622 6.85281 8.45505C6.78578 8.19607 6.72905 7.93201 6.67233 7.66794C6.18762 5.21013 6.50733 3.35662 7.32205 2.89451ZM6.05871 16.2804C5.84214 16.2195 5.63072 16.1535 5.41931 16.0824C4.32097 15.7422 3.0731 15.2039 2.17072 14.498C1.64991 14.1426 1.29927 13.5941 1.2013 12.9797C1.2013 12.0504 2.83075 10.8621 5.18211 10.0547C5.47603 9.9531 5.7751 9.86169 6.07418 9.77537C6.42482 10.8773 6.84765 11.959 7.33752 13.0051C6.8425 14.0664 6.41451 15.1633 6.05871 16.2804ZM12.0712 21.257C11.2204 22.0238 10.2355 22.6332 9.16292 23.0496C8.59055 23.3187 7.93052 23.3441 7.34268 23.1156C6.5228 22.6484 6.18247 20.8558 6.64655 18.4437C6.70327 18.1594 6.76515 17.875 6.83734 17.5957C7.9924 17.8394 9.15776 18.007 10.3386 18.0933C11.0193 19.0429 11.7669 19.9519 12.5662 20.8051C12.4012 20.9625 12.2362 21.1148 12.0712 21.257ZM13.3345 20.023C12.8086 19.4644 12.2826 18.8449 11.7721 18.1797C12.2671 18.2 12.7776 18.2101 13.2933 18.2101C13.8244 18.2101 14.3452 18.2 14.8608 18.1746C14.3864 18.8195 13.876 19.434 13.3345 20.023ZM20.0741 21.5465C20.0276 22.166 19.7183 22.7449 19.2232 23.1359C18.4034 23.6031 16.6553 22.9937 14.768 21.3992C14.5515 21.2164 14.3349 21.0183 14.1131 20.8152C14.9021 19.957 15.6292 19.048 16.2892 18.0933C17.47 17.9968 18.6457 17.8191 19.8059 17.5601C19.8575 17.7683 19.9039 17.9765 19.9451 18.1797C20.1978 19.2765 20.2391 20.4191 20.0741 21.5465ZM21.0125 16.0875C20.8682 16.1332 20.7238 16.1789 20.5742 16.2195C20.2133 15.1125 19.7698 14.0308 19.2593 12.9797C19.7544 11.9437 20.172 10.8773 20.5227 9.78552C20.7908 9.86169 21.0486 9.94294 21.2961 10.0242C23.6991 10.8367 25.3852 12.0453 25.3852 12.9695C25.3852 13.9648 23.5856 15.2496 21.0125 16.0875ZM13.2933 15.3258C14.5979 15.3258 15.6549 14.2847 15.6549 13C15.6549 11.7152 14.5979 10.6742 13.2933 10.6742C11.9887 10.6742 10.9316 11.7152 10.9316 13C10.9316 14.2847 11.9887 15.3258 13.2933 15.3258Z" fill="white"/>
</g>
<defs>
<clipPath id="clip0_120_228">
<rect width="26.4012" height="26" fill="white" transform="translate(0.0926514)"/>
</clipPath>
</defs>
</svg>
