<svg width="36" height="28" viewBox="0 0 36 28" fill="none" xmlns="http://www.w3.org/2000/svg">
<g id="sass 1" clip-path="url(#clip0_120_253)">
<path id="Vector" d="M16.7749 20.7211C16.7415 20.7813 16.7582 20.7539 16.7749 20.7211V20.7211ZM30.6077 15.9633C29.4909 15.963 28.3889 16.2156 27.3869 16.7016C27.0593 16.0508 26.7205 15.482 26.665 15.0555C26.5984 14.5578 26.5262 14.2625 26.6039 13.6719C26.6817 13.0813 27.0315 12.2445 27.026 12.1844C27.0204 12.1242 26.9482 11.8234 26.2319 11.818C25.5155 11.8125 24.8991 11.9547 24.8269 12.1406C24.7004 12.4804 24.602 12.8297 24.5326 13.1852C24.4049 13.825 23.0999 16.1109 22.3613 17.3031C22.117 16.8383 21.9115 16.4281 21.8671 16.1C21.8005 15.6024 21.7283 15.307 21.806 14.7164C21.8838 14.1258 22.2336 13.2891 22.2281 13.2289C22.2225 13.1688 22.1503 12.868 21.434 12.8625C20.7176 12.857 20.1012 12.9992 20.029 13.1852C19.9568 13.3711 19.8791 13.8086 19.7347 14.2297C19.5903 14.6508 17.8522 18.457 17.3968 19.4469C17.1636 19.95 16.9637 20.3547 16.8193 20.6281C16.7971 20.6719 16.7804 20.6992 16.7693 20.7211C16.786 20.6938 16.7971 20.6664 16.7971 20.6774C16.6749 20.9125 16.6027 21.0438 16.6027 21.0438V21.0492C16.5083 21.2242 16.4028 21.3828 16.3528 21.3828C16.3195 21.3828 16.2473 20.9234 16.3695 20.2945C16.6305 18.9711 17.2469 16.9149 17.2413 16.8438C17.2358 16.8055 17.3579 16.45 16.836 16.2586C16.3306 16.0781 16.1474 16.3789 16.1029 16.3789C16.0585 16.3789 16.0252 16.4883 16.0252 16.4883C16.0252 16.4883 16.5861 14.1695 14.9479 14.1695C13.9261 14.1695 12.5045 15.2742 11.8048 16.275C11.3661 16.5102 10.4165 17.0188 9.41695 17.5602C9.03379 17.768 8.63951 17.9813 8.26745 18.1836C8.23969 18.1563 8.21747 18.1289 8.18971 18.1016C6.20168 16.0125 2.53106 14.5359 2.68654 11.7305C2.74207 10.7078 3.10303 8.02266 9.74459 4.76329C15.1867 2.09454 19.5403 2.82735 20.2845 4.45704C21.3618 6.78126 17.9577 11.107 12.3046 11.7305C10.15 11.9656 9.01713 11.1453 8.73392 10.8391C8.4396 10.5164 8.39517 10.5 8.28411 10.5602C8.10086 10.6586 8.21747 10.943 8.28411 11.1125C8.45071 11.5445 9.14485 12.3102 10.3277 12.693C11.3661 13.0266 13.8928 13.2125 16.947 12.0477C20.3789 10.7461 23.0499 7.12032 22.2669 4.08516C21.4784 1.00079 16.2862 -0.0109303 11.3772 1.70626C8.45071 2.72891 5.28541 4.33673 3.00863 6.43126C0.304245 8.92501 -0.1289 11.0961 0.0488003 12.0039C0.681859 15.225 5.19101 17.325 6.99578 18.8781C6.90693 18.9274 6.82364 18.9711 6.74589 19.0149C5.84073 19.4578 2.40333 21.2297 1.5426 23.1C0.570796 25.2219 1.70364 26.7422 2.44776 26.95C4.76897 27.5844 7.14572 26.4414 8.42294 24.5656C9.70016 22.6899 9.54467 20.2399 8.95604 19.1242C8.95049 19.1078 8.93938 19.0969 8.93383 19.0805C9.16706 18.9438 9.40585 18.807 9.64463 18.6703C10.1055 18.4024 10.5553 18.1563 10.9496 17.943C10.7275 18.5336 10.5665 19.2445 10.4832 20.2727C10.3832 21.4758 10.8885 23.0344 11.5438 23.6469C11.8326 23.9149 12.1824 23.9203 12.399 23.9203C13.1653 23.9203 13.5096 23.2969 13.8928 22.5531C14.3648 21.6453 14.7813 20.5899 14.7813 20.5899C14.7813 20.5899 14.2593 23.4445 15.6865 23.4445C16.2084 23.4445 16.7304 22.7828 16.9637 22.4438V22.4492C16.9637 22.4492 16.9748 22.4274 17.0025 22.3836C17.0581 22.3016 17.0858 22.2524 17.0858 22.2524V22.2359C17.2969 21.8805 17.7578 21.0656 18.4519 19.7203C19.3515 17.9813 20.2123 15.8102 20.2123 15.8102C20.2954 16.2874 20.4104 16.7588 20.5566 17.2211C20.712 17.7406 21.0397 18.3094 21.3007 18.8617C21.0897 19.1461 20.9619 19.3102 20.9619 19.3102C20.9623 19.3144 20.9643 19.3183 20.9675 19.3211C20.8009 19.5399 20.6121 19.775 20.4177 20.0047C19.7069 20.8359 18.8629 21.7875 18.7518 22.0609C18.6185 22.3836 18.6518 22.6242 18.9073 22.8102C19.0961 22.9524 19.4293 22.9742 19.7791 22.9469C20.4177 22.9031 20.8675 22.75 21.0841 22.6516C21.4836 22.5106 21.8611 22.3155 22.2058 22.0719C22.9 21.5688 23.322 20.8469 23.2832 19.8953C23.2609 19.3703 23.0888 18.8453 22.8778 18.3531C22.9389 18.2656 23.0055 18.1727 23.0666 18.0797C24.1606 16.4992 25.0102 14.7656 25.0102 14.7656C25.0933 15.2429 25.2083 15.7142 25.3545 16.1766C25.4878 16.6195 25.7487 17.1063 25.9875 17.582C24.9547 18.4078 24.316 19.3649 24.0939 19.9938C23.683 21.1586 24.0051 21.6836 24.6104 21.8039C24.8825 21.8586 25.2712 21.7328 25.5599 21.6125C25.989 21.4719 26.3935 21.2671 26.7594 21.0055C27.4536 20.5024 28.1255 19.7969 28.0811 18.8399C28.0644 18.4078 27.9422 17.9758 27.7812 17.5602C28.653 17.1992 29.7859 17.0024 31.2297 17.1664C34.3228 17.5219 34.9281 19.425 34.8115 20.218C34.6949 21.0109 34.0451 21.4539 33.8286 21.5852C33.612 21.7164 33.5454 21.7656 33.562 21.8641C33.5898 22.0063 33.6897 22.0008 33.873 21.968C34.1284 21.9242 35.4945 21.3227 35.5556 19.8516C35.6445 17.9922 33.8286 15.9469 30.6133 15.9633H30.6077ZM6.77366 23.8766C5.75188 24.9758 4.31917 25.3914 3.70277 25.0414C3.0475 24.6641 3.3085 23.0453 4.56906 21.875C5.33539 21.1641 6.32385 20.5078 6.97912 20.1031C7.12906 20.0156 7.34563 19.8844 7.61218 19.7258C7.65661 19.6984 7.67882 19.6875 7.67882 19.6875C7.7288 19.6547 7.78433 19.6274 7.83986 19.5945C8.30077 21.257 7.85652 22.7227 6.77921 23.8766H6.77366ZM14.2371 18.8781C13.8817 19.7367 13.132 21.9242 12.6766 21.8094C12.2879 21.7109 12.0491 20.043 12.5989 18.4024C12.8766 17.5766 13.4652 16.5922 13.815 16.2094C14.3759 15.5914 14.9923 15.3945 15.1367 15.6406C15.3311 15.9633 14.4592 18.3422 14.2371 18.8781ZM20.4011 21.7766C20.2511 21.8531 20.1123 21.9024 20.0457 21.8641C19.9957 21.8367 20.1068 21.7328 20.1068 21.7328C20.1068 21.7328 20.8786 20.918 21.1841 20.5461C21.3618 20.3274 21.5672 20.0703 21.7894 19.7859C21.7894 19.8133 21.7949 19.8406 21.7949 19.8734C21.7894 20.8524 20.8342 21.5141 20.4011 21.7766ZM25.1546 20.7102C25.0435 20.6336 25.0602 20.3766 25.4322 19.5781C25.5766 19.2664 25.9098 18.7414 26.4873 18.2383C26.5527 18.4287 26.5883 18.6279 26.5928 18.8289C26.5873 20.0594 25.6932 20.5188 25.1546 20.7102Z" fill="white"/>
</g>
<defs>
<clipPath id="clip0_120_253">
<rect width="35.5401" height="28" fill="white" transform="translate(0.0155029)"/>
</clipPath>
</defs>
</svg>
