<svg width="27" height="26" viewBox="0 0 27 26" fill="none" xmlns="http://www.w3.org/2000/svg">
<g id="typescript 1" clip-path="url(#clip0_120_264)">
<path id="Vector" d="M0.0926514 13V6.4C0.0926514 4.15979 0.0926514 3.03969 0.528625 2.18404C0.912119 1.43139 1.52404 0.819467 2.27669 0.435974C3.13234 0 4.25244 0 6.49265 0H20.0939C22.3341 0 23.4542 0 24.3098 0.435974C25.0625 0.819467 25.6744 1.43139 26.0579 2.18404C26.4939 3.03969 26.4939 4.15979 26.4939 6.4V19.6C26.4939 21.8402 26.4939 22.9603 26.0579 23.816C25.6744 24.5686 25.0625 25.1805 24.3098 25.564C23.4542 26 22.3341 26 20.0939 26H0.0926514" fill="white"/>
<path id="Vector_2" d="M5.8811 13.0454V14.1049H9.31326V23.7249H11.7488V14.1049H15.1809V13.0649C15.1809 12.4799 15.1809 12.0054 15.1545 11.9924C15.1545 11.9729 13.0622 11.9664 10.5211 11.9664L5.9009 11.9859V13.0519L5.8811 13.0454ZM21.306 11.9599C21.9793 12.1159 22.4941 12.4149 22.9561 12.8894C23.2003 13.1494 23.5633 13.6044 23.5897 13.7214C23.5897 13.7604 22.4479 14.5209 21.7548 14.9434C21.7284 14.9629 21.6228 14.8524 21.5172 14.6834C21.174 14.2024 20.8242 13.9944 20.2764 13.9554C19.4843 13.9034 18.9563 14.3129 18.9563 14.9954C18.9563 15.2034 18.9959 15.3204 19.0751 15.4894C19.2533 15.8469 19.5833 16.0614 20.6064 16.5034C22.4941 17.3029 23.3125 17.8294 23.8075 18.5834C24.3686 19.4284 24.494 20.7544 24.1178 21.7489C23.6953 22.8344 22.6657 23.5689 21.1938 23.8094C20.7318 23.8874 19.6757 23.8744 19.1807 23.7899C18.1247 23.5949 17.1148 23.0749 16.4944 22.4054C16.2502 22.1454 15.7816 21.4499 15.808 21.4044L16.0588 21.2484L17.0488 20.6829L17.7947 20.2539L17.9663 20.4814C18.1841 20.8194 18.6725 21.2744 18.9563 21.4304C19.8144 21.8659 20.9628 21.8074 21.5304 21.3004C21.7746 21.0794 21.8803 20.8454 21.8803 20.5204C21.8803 20.2214 21.834 20.0849 21.6822 19.8574C21.471 19.5714 21.0486 19.3374 19.8606 18.8174C18.4943 18.2454 17.9135 17.8814 17.3722 17.3224C17.062 16.9844 16.7782 16.4579 16.6462 16.0224C16.5472 15.6454 16.5142 14.7224 16.6066 14.3519C16.8904 13.0519 17.8871 12.1419 19.3127 11.8819C19.7748 11.7909 20.8638 11.8299 21.3192 11.9469L21.306 11.9599Z" fill="#373D52"/>
</g>
<defs>
<clipPath id="clip0_120_264">
<rect width="26.4012" height="26" fill="white" transform="translate(0.0926514)"/>
</clipPath>
</defs>
</svg>
