<?xml version="1.0" standalone="no"?>
<!DOCTYPE svg PUBLIC "-//W3C//DTD SVG 20010904//EN"
 "http://www.w3.org/TR/2001/REC-SVG-20010904/DTD/svg10.dtd">
<svg version="1.0" xmlns="http://www.w3.org/2000/svg"
 width="1212.000000pt" height="789.000000pt" viewBox="0 0 1212.000000 789.000000"
 preserveAspectRatio="xMidYMid meet">

<g transform="translate(0.000000,789.000000) scale(0.100000,-0.100000)"
fill="#000000" stroke="none">
<path d="M0 3945 l0 -3945 6060 0 6060 0 0 3945 0 3945 -6060 0 -6060 0 0
-3945z m3774 2700 c-5 -13 -64 -15 -444 -15 -241 0 -453 3 -471 7 -33 7 -33 7
-9 14 14 4 228 7 477 8 398 1 452 -1 447 -14z m1956 -143 c0 -5 -6 -17 -14
-27 -12 -17 -11 -22 16 -47 25 -24 28 -32 24 -70 -6 -49 -26 -68 -71 -68 -43
0 -70 31 -70 82 0 31 6 45 26 62 13 11 31 33 39 49 12 24 50 39 50 19z m240
-108 l0 -101 -60 -1 c-57 -1 -61 1 -75 28 -18 35 -19 64 -4 93 17 32 30 38 67
32 30 -6 32 -4 32 24 0 24 4 29 20 28 19 -1 20 -8 20 -103z m1304 100 c11 -4
16 -19 16 -52 l0 -45 23 21 c13 12 34 22 46 22 22 0 23 -1 7 -22 -28 -40 -29
-49 -7 -78 11 -16 21 -34 21 -40 0 -21 -45 -9 -67 18 l-22 27 -1 -28 c0 -24
-4 -28 -22 -25 -22 3 -23 8 -26 92 -4 112 -1 122 32 110z m-1972 -21 c28 -25
24 -77 -8 -102 -15 -12 -37 -21 -50 -21 -17 0 -23 -6 -26 -27 -2 -20 -9 -29
-25 -31 -23 -3 -23 -1 -23 97 l0 101 57 0 c38 0 62 -5 75 -17z m-1150 -46
l-32 -33 30 -29 c16 -16 30 -35 30 -42 0 -25 -28 -13 -65 28 l-37 41 43 44
c29 29 46 41 53 34 7 -7 -1 -21 -22 -43z m2748 33 c0 -11 7 -20 15 -20 8 0 15
-7 15 -15 0 -9 -7 -18 -15 -21 -20 -8 -19 -64 2 -79 20 -15 9 -35 -21 -35 -34
0 -46 19 -46 72 0 26 -4 48 -10 48 -5 0 -10 7 -10 15 0 8 5 15 10 15 6 0 10 9
10 20 0 15 7 20 25 20 18 0 25 -5 25 -20z m-1460 -30 c15 -15 20 -33 20 -79
l0 -58 -55 -1 c-59 0 -85 14 -85 48 0 10 10 26 22 34 18 13 19 16 5 16 -24 0
-21 26 5 44 31 22 64 20 88 -4z m85 -31 c9 -52 21 -57 30 -11 9 46 21 61 44
55 18 -4 17 -9 -8 -79 -23 -67 -29 -74 -50 -72 -19 2 -28 15 -49 71 -20 55
-22 71 -12 77 23 14 38 0 45 -41z m591 24 c19 -25 18 -93 -3 -115 -22 -24 -77
-24 -103 2 -28 28 -27 93 1 121 25 25 83 21 105 -8z m174 1 c0 -17 -6 -24 -19
-24 -17 0 -20 -8 -23 -52 -3 -46 -6 -53 -25 -56 -22 -3 -23 0 -23 71 0 40 2
76 4 78 2 2 23 5 45 6 37 1 41 -1 41 -23z m58 -29 c4 -58 14 -74 37 -55 9 8
15 29 15 56 0 37 3 44 20 44 18 0 20 -7 20 -74 l0 -73 -55 -1 c-73 -1 -85 12
-85 92 0 59 1 63 23 62 19 -1 22 -7 25 -51z m237 44 c6 0 22 3 36 6 42 11 59
-15 59 -91 0 -62 -1 -65 -22 -62 -20 3 -23 10 -26 56 -3 44 -6 53 -20 50 -13
-2 -18 -16 -20 -56 -3 -48 -5 -53 -24 -50 -18 3 -21 10 -22 53 -1 38 -5 50
-18 53 -14 3 -17 -6 -20 -50 -3 -46 -6 -53 -25 -56 -22 -3 -23 0 -23 72 l0 75
38 4 c20 2 46 2 57 0 11 -3 25 -4 30 -4z m209 1 c32 -12 36 -50 7 -50 -11 0
-23 5 -26 10 -8 13 -25 13 -25 1 0 -5 13 -12 29 -16 16 -3 35 -13 41 -21 20
-23 4 -61 -30 -73 -33 -11 -55 -7 -82 17 -30 26 -21 35 30 28 l47 -6 -42 20
c-37 16 -43 24 -43 49 0 45 39 62 94 41z m262 -15 c16 -16 24 -34 22 -48 -3
-19 -11 -23 -53 -27 -30 -3 -45 -8 -38 -13 7 -4 28 -5 48 -1 27 5 35 3 35 -9
0 -53 -107 -52 -130 2 -35 86 53 159 116 96z m145 15 c16 -9 19 -22 19 -79 l0
-69 -53 -1 c-67 0 -79 8 -75 50 3 30 7 35 41 43 20 5 37 13 37 17 0 4 -14 3
-31 -3 -42 -14 -59 2 -30 31 23 23 61 27 92 11z m435 -519 c-9 -14 20 -32 46
-28 12 2 17 2 11 0 -19 -6 -16 -12 20 -46 l32 -32 -32 -3 c-49 -5 -40 -22 12
-22 l45 0 0 -37 c0 -21 4 -44 9 -52 10 -16 31 -6 31 15 0 15 27 19 47 6 10 -6
10 -12 -2 -28 -13 -18 -14 -18 -8 6 6 22 5 24 -10 11 -9 -7 -17 -24 -17 -37 0
-16 -10 -29 -32 -41 -30 -16 -85 -18 -583 -21 -548 -4 -551 -4 -597 18 -57 26
-72 43 -91 97 -12 37 -13 49 -1 80 7 21 13 33 14 27 0 -14 30 -28 30 -14 0 5
-7 15 -15 24 -9 9 -11 17 -5 21 5 3 10 1 10 -4 0 -6 20 -11 45 -11 33 0 45 4
45 15 0 11 12 16 43 17 24 1 8 4 -38 8 l-80 6 35 16 c31 15 87 17 538 18 290
0 501 -4 498 -9z m-2846 -130 l0 -59 -31 1 c-37 2 -51 28 -38 66 7 17 15 22
29 18 15 -4 20 0 20 14 0 10 5 19 10 19 6 0 10 -26 10 -59z m397 46 c-3 -7 2
-22 10 -32 13 -19 15 -19 24 -2 19 34 69 14 69 -28 0 -43 -53 -63 -65 -25 -3
11 -10 20 -15 20 -4 0 -10 -9 -13 -20 -6 -22 -36 -27 -55 -8 -18 18 -15 45 10
78 22 30 44 41 35 17z m-760 -9 c21 -27 22 -59 2 -79 -24 -24 -68 -25 -71 -1
-7 83 -3 92 32 92 15 0 32 -6 37 -12z m144 5 c10 -85 2 -122 -18 -90 -9 14
-14 66 -8 85 5 13 24 17 26 5z m265 -9 c-3 -9 -6 -20 -6 -25 0 -5 -4 -9 -10
-9 -11 0 -14 33 -3 43 12 13 25 7 19 -9z m215 9 c6 -37 5 -103 -2 -103 -22 0
-40 86 -22 103 9 9 23 9 24 0z m-535 -25 c5 -7 9 -20 8 -28 -1 -8 -2 -22 -3
-31 -1 -11 -10 -16 -28 -15 -25 1 -28 5 -29 36 -1 19 0 38 3 43 7 11 40 8 49
-5z m143 -2 c12 -15 6 -62 -10 -72 -16 -9 -48 6 -54 26 -14 44 36 79 64 46z
m249 2 c30 -30 2 -86 -38 -73 -15 5 -20 15 -20 39 0 18 3 36 7 39 10 11 38 8
51 -5z m93 -10 c12 -23 3 -72 -11 -63 -6 3 -10 17 -10 30 0 23 -19 46 -21 26
-1 -6 -3 -15 -4 -21 -1 -5 -3 -17 -4 -26 -2 -32 -21 -1 -21 35 0 35 2 38 30
39 20 0 33 -6 41 -20z m129 12 c0 -6 -7 -13 -15 -16 -9 -4 -15 -19 -15 -35 0
-16 -4 -29 -10 -29 -5 0 -10 20 -10 45 0 41 2 45 25 45 14 0 25 -5 25 -10z
m2612 -369 c16 -19 15 -20 -15 -24 -30 -4 -29 -4 7 -5 34 -2 38 0 33 18 -4 17
-2 18 14 9 11 -5 17 -14 14 -20 -4 -5 1 -9 10 -9 15 0 16 -9 10 -80 -5 -51 -3
-80 3 -80 5 0 9 -6 8 -12 0 -7 4 -13 9 -13 6 0 10 23 9 50 -1 28 1 40 3 27 2
-12 9 -20 14 -17 5 4 9 -3 9 -14 0 -29 -21 -71 -36 -71 -7 0 -19 -9 -27 -20
-8 -12 -33 -24 -63 -29 -27 -5 -290 -10 -584 -10 l-535 -1 -40 24 c-22 12 -46
36 -54 52 -8 16 -18 37 -23 46 -13 28 -10 55 13 103 16 35 32 49 72 70 l51 25
541 0 c523 0 541 -1 557 -19z m122 -91 l7 -25 -15 25 c-17 28 -21 50 -7 35 5
-6 12 -21 15 -35z m-3434 0 c11 -11 20 -29 20 -40 0 -28 -33 -58 -61 -56 -22
1 -24 6 -27 59 -3 55 -2 57 23 57 14 0 34 -9 45 -20z m318 -20 c4 -42 -6 -83
-18 -75 -15 10 -13 118 3 113 6 -3 13 -19 15 -38z m37 -10 c7 -50 1 -75 -16
-64 -11 6 -10 114 2 114 4 0 10 -22 14 -50z m165 -5 c0 -30 -4 -55 -10 -55 -5
0 -10 25 -10 55 0 30 5 55 10 55 6 0 10 -25 10 -55z m270 -3 c0 -57 0 -58 -27
-56 -40 2 -40 2 -46 26 -8 29 9 58 33 58 11 0 20 7 20 15 0 8 5 15 10 15 6 0
10 -26 10 -58z m988 4 c1 -30 -2 -57 -7 -60 -13 -9 -21 22 -19 72 2 62 23 52
26 -12z m-1630 27 c12 -12 13 -18 4 -21 -15 -5 -16 -39 0 -44 6 -2 8 -9 4 -16
-19 -32 -54 44 -38 86 6 16 10 15 30 -5z m423 10 c12 -102 -4 -133 -29 -58 -9
28 -9 41 -1 51 12 15 28 19 30 7z m1155 -5 c10 -16 13 -98 4 -98 -13 0 -27 24
-33 54 -8 47 10 74 29 44z m-46 -57 c0 -33 -3 -37 -25 -36 -34 0 -46 16 -39
53 12 59 64 45 64 -17z m-1584 25 c10 -43 1 -61 -31 -61 -27 0 -30 3 -31 35
-2 44 2 50 31 50 18 0 26 -7 31 -24z m139 -15 c0 -41 -25 -62 -49 -42 -16 14
-22 62 -9 75 4 4 19 6 33 4 21 -3 25 -8 25 -37z m251 15 c7 -30 2 -61 -11 -61
-6 0 -11 15 -13 33 -4 43 -22 41 -22 -3 0 -44 -18 -46 -22 -2 -4 39 -22 43
-26 5 -5 -43 -22 -33 -22 12 l0 40 55 0 c49 0 55 -2 61 -24z m173 10 c14 -17
5 -62 -15 -70 -34 -13 -62 24 -49 64 7 23 47 27 64 6z m219 -19 c6 -54 -36
-75 -63 -33 -23 34 -5 68 33 64 21 -2 28 -9 30 -31z m120 15 c2 -8 -5 -11 -19
-10 -16 2 -24 -3 -27 -16 -3 -16 0 -18 23 -12 19 5 26 3 23 -5 -8 -24 -35 -34
-52 -20 -16 14 -22 62 -9 75 11 11 56 2 61 -12z m82 3 c15 -18 6 -61 -16 -69
-37 -14 -65 25 -48 68 8 20 48 21 64 1z m90 -30 c0 -25 -4 -45 -10 -45 -5 0
-10 16 -10 35 0 44 -18 46 -22 3 -5 -52 -28 -47 -28 6 0 46 0 46 35 46 35 0
35 0 35 -45z m80 18 l0 -28 13 25 c9 18 21 25 42 25 25 0 30 -4 33 -28 6 -49
-30 -73 -62 -41 -15 14 -17 14 -32 -1 -28 -28 -49 -15 -52 33 -3 41 -2 42 27
42 27 0 31 -4 31 -27z m218 -12 c2 -18 -1 -38 -7 -44 -8 -8 -11 -2 -11 20 0
18 -4 34 -9 37 -10 7 -21 -17 -21 -45 0 -11 -4 -17 -10 -14 -5 3 -10 20 -10
36 0 18 -4 28 -10 24 -5 -3 -10 -17 -10 -30 0 -29 -16 -41 -24 -19 -8 21 -8
59 1 68 4 4 30 6 58 4 49 -3 50 -4 53 -37z m130 6 c2 -16 0 -36 -4 -45 -6 -13
-9 -9 -13 16 -8 43 -25 46 -29 4 -4 -40 -22 -32 -22 9 0 18 -4 28 -10 24 -5
-3 -10 -17 -10 -30 0 -29 -16 -41 -24 -19 -8 21 -8 59 1 68 4 4 30 6 58 4 47
-3 50 -5 53 -31z m268 9 c12 -48 -32 -86 -64 -54 -13 13 -16 60 -5 71 3 4 19
7 34 7 22 0 30 -6 35 -24z m84 -21 c0 -52 -17 -61 -22 -12 -2 17 -7 32 -13 32
-5 0 -11 -15 -13 -32 -5 -49 -22 -40 -22 12 0 45 0 45 35 45 35 0 35 0 35 -45z
m-3576 -121 c15 -57 -21 -88 -41 -36 l-11 27 -1 -27 c-1 -15 -6 -30 -12 -34
-6 -3 -57 -6 -114 -5 -97 2 -103 1 -108 -19 -4 -15 -11 -20 -24 -16 -10 3 -64
12 -119 20 -127 19 -198 50 -164 71 6 4 8 11 5 16 -16 26 18 29 295 29 l288 0
6 -26z m886 -18 c0 -71 -2 -73 -74 -65 -35 3 -68 9 -74 13 -13 8 -90 18 -112
15 -8 -1 -64 -2 -123 -3 -86 -1 -110 2 -117 14 -8 13 -10 13 -10 -1 0 -9 -6
-17 -12 -16 -7 0 -41 -1 -75 -1 -58 -2 -61 -3 -57 -24 3 -13 -5 0 -18 29 -29
64 -41 77 -28 32 16 -55 13 -79 -10 -79 -13 0 -20 7 -20 20 0 27 -18 25 -23
-2 -3 -22 -4 -22 -15 5 -12 29 -42 37 -42 12 0 -32 -32 -13 -50 31 -11 25 -20
50 -20 55 0 5 180 9 440 9 l440 0 0 -44z m5623 38 c16 -6 12 -38 -6 -61 -6 -9
-5 -13 4 -14 25 -3 -75 -19 -171 -29 -52 -5 -231 -9 -397 -9 -337 0 -313 -6
-313 75 l0 44 434 0 c239 0 441 -3 449 -6z m-7184 -82 c-1 -31 -4 -68 -8 -82
-7 -23 -8 -22 -15 13 -6 33 -10 37 -28 31 -53 -17 -97 -14 -122 9 -25 21 -25
23 -8 43 10 12 27 26 39 33 30 15 103 15 103 -1 0 -7 5 -5 11 5 17 30 29 9 28
-51z m7411 17 c7 -11 9 -27 6 -35 -9 -23 -35 -16 -42 10 -11 44 16 63 36 25z
m1530 -161 c-14 -5 -63 -13 -110 -16 l-85 -7 70 -6 c39 -3 -129 -6 -371 -7
l-442 -2 -4 25 -5 25 486 -1 c344 0 479 -3 461 -11z m-5350 -138 c0 -47 -3
-60 -15 -60 -12 0 -15 13 -15 60 0 47 3 60 15 60 12 0 15 -13 15 -60z m268 -3
l3 -57 -40 0 c-22 0 -42 5 -44 13 -4 9 -8 9 -15 -2 -11 -15 -36 -6 -27 10 4 5
2 16 -3 26 -8 14 -11 12 -16 -13 -6 -28 -10 -30 -62 -32 l-56 -2 3 32 c2 18 7
39 12 46 15 19 48 14 54 -8 7 -25 21 -27 19 -2 -1 12 8 18 32 20 27 3 35 -1
39 -18 l6 -21 14 21 c10 14 22 20 34 17 14 -4 19 0 19 15 0 11 5 18 13 16 7
-3 13 -27 15 -61z m-1544 31 c14 -24 2 -32 -23 -16 -18 11 -23 11 -31 -2 -6
-8 -9 -22 -7 -30 3 -19 37 -26 48 -9 4 7 11 10 16 6 11 -12 -11 -42 -34 -45
-28 -4 -53 23 -53 58 0 53 58 79 84 38z m211 10 c-2 -7 2 -22 11 -33 14 -19
16 -19 25 -2 6 10 22 17 40 17 30 0 30 0 27 -52 -3 -52 -4 -53 -37 -56 -30 -3
-33 -1 -28 17 2 11 -1 28 -9 38 -13 17 -13 17 -14 -4 0 -26 -35 -40 -55 -23
-21 18 -18 46 7 80 22 30 41 40 33 18z m291 -40 c-1 -64 -21 -71 -22 -8 0 49
3 60 16 60 4 0 7 -24 6 -52z m677 20 l14 -33 7 33 c4 17 14 32 22 32 17 0 17
-3 0 -60 -9 -32 -18 -45 -32 -45 -13 0 -24 14 -35 45 -9 25 -15 48 -12 53 9
15 23 6 36 -25z m-1037 -43 c1 -25 -2 -45 -6 -45 -24 0 -46 80 -27 99 18 18
30 -3 33 -54z m3000 34 l31 -30 33 30 c33 29 50 32 50 7 0 -6 -18 -30 -40 -51
l-40 -39 -46 46 c-26 25 -43 51 -40 57 11 16 17 14 52 -20z m-1518 5 c8 -14
10 -14 21 0 14 17 47 22 54 9 3 -5 8 -22 11 -40 6 -26 4 -34 -13 -43 -31 -16
-64 4 -56 33 4 15 0 11 -14 -10 -23 -37 -24 -37 -52 -23 -19 11 -28 68 -12 83
12 13 52 7 61 -9z m192 6 c0 -6 8 -5 20 2 28 18 54 -1 58 -40 6 -58 -63 -67
-75 -10 -7 35 -27 32 -31 -6 -5 -41 -27 -25 -30 22 -3 41 -2 42 27 42 17 0 31
-5 31 -10z m120 -20 c0 -16 5 -30 10 -30 6 0 10 14 10 30 0 36 30 43 31 8 l0
-23 11 23 c8 16 20 22 45 22 l34 0 -3 -57 -3 -58 -35 0 c-24 0 -35 5 -36 15
-4 42 -5 45 -13 26 -8 -21 -49 -29 -68 -14 -19 15 -17 88 2 88 10 0 15 -10 15
-30z m218 18 c19 -19 15 -66 -7 -78 -25 -13 -27 -13 -45 6 -30 29 -14 84 24
84 9 0 21 -5 28 -12z m-2070 -45 c3 -40 2 -42 -24 -40 -36 3 -48 25 -35 60 8
21 17 28 34 25 18 -2 23 -10 25 -45z m320 11 c5 -55 -60 -74 -70 -20 -7 36 9
58 40 54 22 -2 28 -9 30 -34z m62 27 c0 -6 -4 -13 -10 -16 -5 -3 -10 -17 -10
-30 0 -29 -16 -41 -24 -19 -8 21 -8 59 1 67 10 10 43 8 43 -2z m118 -7 c23
-41 -20 -92 -53 -64 -18 15 -19 52 -3 68 17 17 45 15 56 -4z m628 -434 c8 0
14 -7 14 -15 0 -8 -7 -15 -15 -15 -11 0 -15 -11 -15 -40 0 -29 -4 -40 -15 -40
-11 0 -15 11 -15 40 0 29 -4 40 -15 40 -8 0 -15 6 -15 14 0 15 26 26 48 20 8
-2 20 -4 28 -4z m52 -51 c2 -53 0 -60 -15 -57 -17 3 -18 8 -14 91 0 15 7 27
14 27 9 0 14 -19 15 -61z m189 4 c-1 -35 -7 -58 -14 -61 -10 -3 -13 13 -13 57
0 46 3 61 14 61 11 0 14 -14 13 -57z m353 38 c0 -14 5 -18 21 -14 15 4 22 0
26 -16 7 -26 19 -27 26 -1 6 22 36 27 55 8 7 -7 12 -27 12 -45 0 -31 -2 -33
-35 -33 -24 0 -38 6 -42 16 -5 15 -7 15 -15 0 -6 -10 -22 -16 -43 -16 l-35 0
0 53 c0 30 3 57 7 60 12 13 23 7 23 -12z m310 5 c0 -7 7 -19 15 -26 8 -7 15
-28 15 -46 0 -32 -2 -34 -34 -34 -19 0 -36 6 -39 13 -6 17 3 66 14 72 4 3 6
12 2 20 -3 9 1 15 11 15 9 0 16 -6 16 -14z m457 2 c4 -7 17 -18 28 -24 26 -14
35 -84 11 -84 -11 0 -16 9 -16 30 0 17 -4 30 -10 30 -5 0 -10 -13 -10 -30 0
-20 -5 -30 -15 -30 -12 0 -15 13 -15 60 0 57 10 74 27 48z m-2587 -13 c0 -9
-10 -15 -26 -15 -14 0 -23 -4 -19 -10 3 -5 15 -10 26 -10 10 0 19 -4 19 -10 0
-5 -9 -10 -19 -10 -11 0 -23 -4 -26 -10 -4 -6 5 -10 20 -10 15 0 25 -5 23 -11
-2 -6 -7 -10 -11 -10 -4 1 -18 1 -32 1 -24 0 -25 3 -25 55 l0 55 35 0 c24 0
35 -5 35 -15z m260 -40 c0 -30 -4 -55 -10 -55 -5 0 -10 25 -10 55 0 30 5 55
10 55 6 0 10 -25 10 -55z m601 38 c5 -37 4 -95 -2 -98 -21 -13 -45 75 -26 94
13 13 27 15 28 4z m2296 -25 l34 -32 27 32 c29 34 52 42 52 18 0 -17 -67 -86
-83 -86 -18 0 -77 63 -77 82 0 25 9 23 47 -14z m-1817 6 c0 -8 -4 -14 -9 -14
-5 0 -11 -12 -13 -27 -5 -47 -28 -40 -28 10 0 41 2 45 25 45 15 0 25 -6 25
-14z m82 -10 c15 -32 1 -57 -32 -62 -26 -4 -51 21 -44 44 2 8 6 21 9 29 8 26
54 18 67 -11z m113 16 c3 -6 -1 -13 -9 -16 -10 -4 -16 -18 -16 -35 0 -19 -5
-29 -15 -29 -11 0 -15 12 -15 45 0 41 2 45 24 45 14 0 28 -5 31 -10z m99 4 c9
-3 16 -14 17 -23 0 -11 3 -8 10 7 7 19 15 23 41 20 31 -3 33 -6 36 -45 2 -34
0 -43 -12 -43 -11 0 -16 10 -16 31 0 17 -4 28 -10 24 -5 -3 -10 -17 -10 -31 0
-31 -30 -33 -31 -1 l0 22 -9 -22 c-13 -32 -57 -31 -71 1 -20 43 11 77 55 60z
m392 -2 c6 -4 11 -23 10 -42 -1 -32 -4 -35 -31 -35 -26 0 -30 4 -32 30 -2 17
-1 36 2 43 5 13 34 16 51 4z m264 -43 c0 -53 -17 -74 -54 -65 -20 5 -24 12
-24 52 -2 59 1 62 43 61 35 -1 35 -1 35 -48z m78 3 l3 -43 -33 3 c-30 3 -33 6
-34 38 -1 38 10 52 41 48 16 -2 21 -12 23 -46z m42 18 c0 -16 5 -30 10 -30 6
0 10 11 10 24 0 22 16 44 25 35 2 -2 5 -22 7 -44 3 -40 3 -40 -32 -40 -34 0
-35 1 -38 43 -2 25 1 42 7 42 6 0 11 -13 11 -30z m128 18 c20 -20 14 -31 -13
-24 -19 5 -25 2 -25 -9 0 -11 7 -15 23 -13 14 2 22 -2 22 -12 0 -19 -41 -25
-61 -10 -29 25 -11 80 26 80 9 0 21 -5 28 -12z m176 -4 c19 -18 19 -16 6 -49
-8 -21 -16 -26 -38 -23 -21 2 -28 9 -30 31 -6 49 30 73 62 41z m-2586 -36 c4
-42 -15 -53 -20 -13 -2 14 -7 25 -13 25 -10 0 -11 -4 -14 -35 -2 -28 -21 -15
-21 15 0 17 -4 30 -10 30 -5 0 -10 -14 -10 -31 0 -20 -4 -29 -12 -26 -12 3
-18 51 -10 69 2 4 26 7 55 5 l52 -2 3 -37z m91 20 c11 -27 -9 -64 -33 -62 -9
1 -16 -5 -16 -13 0 -8 -6 -13 -12 -10 -12 3 -20 82 -11 100 2 4 18 7 34 7 21
0 32 -6 38 -22z m119 -19 c3 -31 0 -37 -20 -42 -30 -8 -56 16 -40 36 7 8 9 17
6 20 -12 11 8 28 29 25 17 -2 23 -11 25 -39z m90 22 c3 -10 -2 -12 -22 -7 -22
5 -26 3 -26 -15 0 -18 4 -20 25 -15 28 7 33 -5 10 -24 -31 -25 -70 16 -54 58
7 18 15 23 36 20 14 -2 29 -9 31 -17z m80 -22 c2 -26 -1 -38 -13 -43 -27 -10
-55 12 -55 43 0 35 8 43 40 39 21 -3 25 -9 28 -39z m130 -1 c2 -22 -1 -38 -7
-38 -6 0 -11 11 -11 24 0 35 -18 42 -22 9 -4 -39 -28 -42 -28 -4 0 17 -4 31
-10 31 -5 0 -10 -13 -10 -29 0 -34 -15 -49 -24 -25 -8 21 -8 59 1 68 4 4 30 6
58 4 l50 -3 3 -37z m81 28 c14 -17 5 -62 -15 -70 -22 -9 -44 4 -50 30 -11 43
38 73 65 40z m89 -28 c4 -42 -15 -53 -20 -13 -4 35 -22 36 -26 3 -5 -43 -22
-33 -22 13 0 39 1 40 33 37 29 -3 32 -6 35 -40z m-1808 -158 c6 -10 29 -28 53
-38 52 -23 103 -66 122 -102 13 -25 12 -32 -8 -71 -17 -35 -30 -47 -61 -57
-50 -16 -82 -6 -144 45 -25 21 -70 52 -101 68 -30 17 -56 35 -58 41 -5 15 45
74 63 74 17 0 18 12 3 27 -9 9 -5 13 17 18 16 4 34 8 39 10 30 10 65 3 75 -15z
m5990 5 c0 -8 -7 -15 -15 -15 -16 0 -20 12 -8 23 11 12 23 8 23 -8z m-3498
-165 c20 -6 50 -26 67 -46 54 -61 39 -152 -33 -202 -32 -22 -38 -22 -369 -22
-374 0 -390 2 -427 62 -28 46 -27 116 2 154 12 16 23 31 24 32 1 2 20 10 41
17 47 17 636 21 695 5z m-1116 -121 c-1 -34 -6 -54 -14 -57 -10 -3 -13 9 -11
49 2 58 6 72 18 65 4 -3 7 -29 7 -57z m121 41 c-3 -10 0 -21 6 -23 6 -2 12
-18 13 -35 3 -51 -43 -65 -67 -20 -9 16 -5 27 17 59 30 43 39 49 31 19z m-483
-11 c8 -12 12 -32 9 -48 -3 -14 -6 -32 -6 -39 -1 -16 -66 -9 -78 9 -13 20 -11
73 3 87 19 19 55 14 72 -9z m317 -6 c11 -12 11 -17 2 -20 -9 -3 -9 -12 -2 -30
11 -29 7 -38 -14 -30 -8 3 -17 20 -19 39 -9 55 7 74 33 41z m90 10 c6 -49 3
-93 -7 -93 -12 0 -25 65 -16 88 5 13 21 17 23 5z m-243 -12 c8 -4 14 -23 15
-41 2 -28 -2 -35 -23 -40 -35 -10 -50 6 -43 43 8 42 25 55 51 38z m86 3 c18
-7 23 -84 6 -84 -5 0 -10 14 -10 30 0 20 -5 30 -15 30 -10 0 -15 -10 -15 -30
0 -16 -4 -30 -10 -30 -5 0 -10 18 -10 39 0 29 5 41 18 44 9 3 18 5 19 6 1 0 8
-2 17 -5z m-204 -35 c0 -38 24 -35 28 4 5 41 22 32 22 -12 0 -33 -4 -39 -24
-43 -14 -3 -30 0 -35 5 -14 14 -14 77 -1 77 6 0 10 -14 10 -31z m4080 7 c0 -2
-9 -6 -20 -9 -11 -3 -20 -1 -20 4 0 5 9 9 20 9 11 0 20 -2 20 -4z m267 -2 c-3
-3 -12 -4 -19 -1 -8 3 -5 6 6 6 11 1 17 -2 13 -5z m80 0 c-3 -3 -12 -4 -19 -1
-8 3 -5 6 6 6 11 1 17 -2 13 -5z m-5233 -107 c-5 -13 -10 -15 -27 -6 -20 11
-20 12 -2 25 22 16 39 5 29 -19z m-625 -189 c8 -13 20 -32 27 -43 13 -19 11
-20 -29 -21 -23 0 -62 -1 -87 -2 -25 0 -67 1 -95 4 -27 2 -88 6 -135 9 -47 2
-96 7 -110 10 -14 2 -63 9 -110 15 -46 6 -89 15 -94 20 -6 6 -24 10 -40 10
-24 0 -27 3 -16 10 9 6 149 10 345 10 l330 0 14 -22z m5646 1 c-11 -4 -33 -8
-50 -9 -26 -1 -27 -3 -10 -10 31 -13 103 -12 108 3 4 9 8 8 16 -3 7 -10 43
-16 138 -21 519 -28 570 -32 597 -45 17 -8 60 -14 100 -14 85 0 307 -18 314
-25 11 -11 -7 -11 -113 -3 -107 8 -147 6 -112 -6 9 -3 25 -9 35 -13 18 -7 26
-8 82 -13 34 -2 34 -3 -13 -12 -50 -11 -102 -4 -92 12 3 5 -19 9 -52 8 -32 -1
-112 1 -178 4 -66 4 -102 4 -80 1 22 -2 44 -8 48 -12 4 -4 -6 -6 -23 -3 -17 2
-36 -1 -44 -7 -11 -9 -15 -9 -19 1 -4 10 -6 11 -6 0 -1 -14 39 -33 53 -24 5 3
6 0 2 -6 -8 -13 50 -23 151 -25 40 -1 73 -5 73 -9 0 -5 363 -9 808 -11 504 -1
281 -3 -595 -5 l-1402 -2 -3 103 c-2 56 -1 114 1 129 l3 28 142 -1 c83 -1 133
-5 121 -10z m587 -40 c-21 -6 -49 -6 -75 -1 -39 9 -37 10 33 10 64 0 70 -1 42
-9z m-6404 -66 c-10 -2 -26 -2 -35 0 -10 3 -2 5 17 5 19 0 27 -2 18 -5z m7672
-3 c0 -5 -19 -9 -42 -9 l-43 2 40 7 c22 4 41 8 43 9 1 0 2 -3 2 -9z m164 -29
c21 -17 14 -26 -11 -12 -10 5 -46 15 -80 22 -35 6 -61 15 -58 18 6 11 130 -12
149 -28z m-661 -18 c-7 -2 -19 -2 -25 0 -7 3 -2 5 12 5 14 0 19 -2 13 -5z
m502 -13 c-3 -5 -12 -7 -20 -3 -21 7 -19 13 6 13 11 0 18 -4 14 -10z m222 4
c-3 -3 -12 -4 -19 -1 -8 3 -5 6 6 6 11 1 17 -2 13 -5z m-7107 -39 l0 -35 -190
0 c-104 0 -190 4 -190 8 0 5 46 12 103 17 188 13 272 22 242 24 -23 1 -27 3
-15 11 32 21 50 12 50 -25z m6255 15 c-3 -5 -11 -10 -16 -10 -6 0 -7 5 -4 10
3 6 11 10 16 10 6 0 7 -4 4 -10z m278 -325 c93 -16 149 -36 180 -65 28 -26 13
-39 -16 -14 -12 11 -44 26 -72 32 -94 23 -388 33 -800 28 -425 -5 -463 3 -110
23 110 6 227 13 260 15 122 7 476 -5 558 -19z m-3735 -1485 c-3 -63 -3 -63
-35 -66 -26 -3 -36 1 -50 22 -15 24 -15 29 -2 53 10 16 23 26 37 25 14 0 22 5
22 16 0 9 3 20 7 24 15 15 24 -15 21 -74z m-830 58 c21 -21 13 -29 -23 -22
-45 8 -47 -12 -2 -24 23 -6 33 -15 35 -32 7 -42 -45 -64 -84 -36 -14 11 -16
18 -8 26 8 8 14 9 18 1 10 -15 49 -14 44 2 -3 6 -13 14 -24 16 -62 11 -57 81
6 81 14 0 31 -5 38 -12z m100 -26 c14 -9 24 -74 13 -89 -3 -5 -22 -9 -41 -9
-30 1 -35 5 -38 28 -3 23 2 29 30 38 l33 10 -32 -5 c-35 -5 -41 3 -21 23 14
14 37 15 56 4z m64 -37 c4 -42 32 -40 36 3 5 50 22 38 22 -17 l0 -48 -35 1
c-40 1 -55 17 -55 62 0 56 26 55 32 -1z m248 35 c39 -21 16 -100 -29 -100 -19
0 -41 32 -41 59 0 45 30 63 70 41z m128 -49 c2 -30 -2 -59 -9 -67 -16 -19 -53
-18 -70 3 -13 15 -11 16 13 10 15 -4 30 -3 33 3 4 6 -5 10 -20 10 -37 0 -54
40 -31 74 13 21 23 25 49 22 31 -3 32 -5 35 -55z m97 43 c10 -11 15 -29 13
-53 -3 -32 -6 -36 -33 -37 -43 -1 -55 5 -55 31 0 16 9 25 33 33 29 11 30 11 4
8 -33 -4 -44 9 -20 23 25 15 39 13 58 -5z m92 -1 c2 -6 -5 -13 -17 -16 -15 -4
-20 -13 -20 -41 0 -20 -4 -36 -10 -36 -5 0 -10 22 -10 49 0 39 4 51 18 54 23
6 35 3 39 -10z m194 7 c10 -6 19 -21 19 -34 0 -19 -4 -22 -30 -18 -19 3 -30 0
-30 -8 0 -8 9 -10 24 -6 33 8 43 -11 13 -25 -38 -17 -67 3 -67 46 0 46 31 66
71 45z m99 -5 c0 -8 -6 -15 -14 -15 -10 0 -16 -13 -18 -37 -5 -58 -28 -54 -28
5 0 40 4 52 18 55 33 9 42 7 42 -8z m-745 -22 l8 -28 10 28 c6 15 17 27 24 27
16 0 16 3 -3 -54 -17 -50 -32 -55 -50 -15 -23 48 -26 69 -11 69 8 0 18 -12 22
-27z m4293 -488 c-3 -3 -9 2 -12 12 -6 14 -5 15 5 6 7 -7 10 -15 7 -18z"/>
<path d="M5665 6400 c-4 -6 5 -10 20 -10 15 0 24 4 20 10 -3 6 -12 10 -20 10
-8 0 -17 -4 -20 -10z"/>
<path d="M5665 6340 c3 -5 15 -10 25 -10 10 0 22 5 25 10 4 6 -7 10 -25 10
-18 0 -29 -4 -25 -10z"/>
<path d="M5877 6393 c-13 -12 -7 -54 9 -60 23 -8 47 20 39 46 -6 20 -34 28
-48 14z"/>
<path d="M5218 6425 c-6 -30 4 -39 32 -30 13 4 20 15 20 31 0 35 -46 34 -52
-1z"/>
<path d="M5375 6400 c-3 -5 3 -10 14 -10 12 0 21 5 21 10 0 6 -6 10 -14 10 -8
0 -18 -4 -21 -10z"/>
<path d="M5370 6340 c0 -5 9 -10 20 -10 11 0 20 5 20 10 0 6 -9 10 -20 10 -11
0 -20 -4 -20 -10z"/>
<path d="M6045 6400 c-3 -5 3 -10 15 -10 12 0 18 5 15 10 -3 6 -10 10 -15 10
-5 0 -12 -4 -15 -10z"/>
<path d="M6040 6340 c0 -5 9 -10 19 -10 11 0 23 5 26 10 4 6 -5 10 -19 10 -14
0 -26 -4 -26 -10z"/>
<path d="M6989 6399 c-10 -6 -7 -9 14 -9 29 0 35 5 14 13 -8 3 -20 1 -28 -4z"/>
<path d="M7135 6340 c-3 -5 3 -10 14 -10 11 0 23 5 26 10 3 6 -3 10 -14 10
-11 0 -23 -4 -26 -10z"/>
<path d="M7580 5910 c0 -5 5 -10 10 -10 6 0 10 5 10 10 0 6 -4 10 -10 10 -5 0
-10 -4 -10 -10z"/>
<path d="M7494 5876 c-9 -10 -5 -13 17 -13 16 0 28 1 27 1 -2 1 -10 7 -18 13
-11 8 -18 8 -26 -1z"/>
<path d="M7560 5880 c0 -5 5 -10 11 -10 5 0 7 5 4 10 -3 6 -8 10 -11 10 -2 0
-4 -4 -4 -10z"/>
<path d="M6811 5844 c0 -11 3 -14 6 -6 3 7 2 16 -1 19 -3 4 -6 -2 -5 -13z"/>
<path d="M7545 5850 c-3 -5 -1 -10 4 -10 6 0 11 5 11 10 0 6 -2 10 -4 10 -3 0
-8 -4 -11 -10z"/>
<path d="M7460 5840 c0 -5 5 -10 11 -10 5 0 7 5 4 10 -3 6 -8 10 -11 10 -2 0
-4 -4 -4 -10z"/>
<path d="M7572 5834 c-7 -8 -8 -14 -3 -14 10 0 25 19 20 25 -2 1 -10 -3 -17
-11z"/>
<path d="M7583 5768 c2 -7 -3 -19 -12 -26 -14 -11 -13 -12 6 -2 14 6 20 16 17
25 -7 18 -17 20 -11 3z"/>
<path d="M6806 5737 c3 -10 9 -15 12 -12 3 3 0 11 -7 18 -10 9 -11 8 -5 -6z"/>
<path d="M7585 5719 c-4 -6 -5 -12 -2 -15 2 -3 7 2 10 11 7 17 1 20 -8 4z"/>
<path d="M7745 5720 c3 -5 8 -10 11 -10 2 0 4 5 4 10 0 6 -5 10 -11 10 -5 0
-7 -4 -4 -10z"/>
<path d="M4746 5793 c-12 -12 -6 -33 9 -33 8 0 15 6 15 14 0 17 -14 28 -24 19z"/>
<path d="M4380 5790 c0 -25 4 -31 18 -28 11 2 17 12 17 28 0 16 -6 26 -17 28
-14 3 -18 -3 -18 -28z"/>
<path d="M4480 5759 c0 -5 5 -7 10 -4 6 3 10 8 10 11 0 2 -4 4 -10 4 -5 0 -10
-5 -10 -11z"/>
<path d="M4620 5760 c0 -5 4 -10 9 -10 6 0 13 5 16 10 3 6 -1 10 -9 10 -9 0
-16 -4 -16 -10z"/>
<path d="M4875 5760 c3 -5 8 -10 11 -10 2 0 4 5 4 10 0 6 -5 10 -11 10 -5 0
-7 -4 -4 -10z"/>
<path d="M7776 5237 c4 -10 1 -29 -6 -43 -8 -13 -11 -27 -8 -30 3 -3 13 9 22
27 15 30 15 34 1 48 -15 15 -15 14 -9 -2z"/>
<path d="M7568 5183 c6 -2 18 -2 25 0 6 3 1 5 -13 5 -14 0 -19 -2 -12 -5z"/>
<path d="M4380 5310 c0 -25 4 -31 18 -28 11 2 17 12 17 28 0 16 -6 26 -17 28
-14 3 -18 -3 -18 -28z"/>
<path d="M5170 5300 c0 -13 5 -20 13 -17 6 2 12 10 12 17 0 7 -6 15 -12 18 -8
2 -13 -5 -13 -18z"/>
<path d="M4628 5313 c7 -3 16 -2 19 1 4 3 -2 6 -13 5 -11 0 -14 -3 -6 -6z"/>
<path d="M4628 5283 c7 -3 16 -2 19 1 4 3 -2 6 -13 5 -11 0 -14 -3 -6 -6z"/>
<path d="M5268 5283 c7 -3 16 -2 19 1 4 3 -2 6 -13 5 -11 0 -14 -3 -6 -6z"/>
<path d="M5467 5306 c-6 -15 1 -26 15 -26 4 0 8 9 8 20 0 23 -15 27 -23 6z"/>
<path d="M5720 5300 c0 -13 5 -20 13 -17 6 2 12 10 12 17 0 7 -6 15 -12 18 -8
2 -13 -5 -13 -18z"/>
<path d="M6245 5310 c-7 -12 2 -30 16 -30 5 0 9 9 9 20 0 21 -15 27 -25 10z"/>
<path d="M5936 4823 c-11 -11 -6 -23 9 -23 8 0 15 4 15 9 0 13 -16 22 -24 14z"/>
<path d="M5805 4800 c-3 -5 -1 -10 4 -10 6 0 11 5 11 10 0 6 -2 10 -4 10 -3 0
-8 -4 -11 -10z"/>
<path d="M4710 4810 c0 -13 5 -20 13 -17 6 2 12 10 12 17 0 7 -6 15 -12 18 -8
2 -13 -5 -13 -18z"/>
<path d="M6290 4815 c0 -8 5 -15 10 -15 6 0 10 7 10 15 0 8 -4 15 -10 15 -5 0
-10 -7 -10 -15z"/>
<path d="M6470 4810 c0 -5 5 -10 10 -10 6 0 10 5 10 10 0 6 -4 10 -10 10 -5 0
-10 -4 -10 -10z"/>
<path d="M4806 4823 c-12 -12 -6 -33 9 -33 8 0 15 6 15 14 0 17 -14 28 -24 19z"/>
<path d="M6256 4341 c-4 -7 -5 -15 -2 -18 9 -9 19 4 14 18 -4 11 -6 11 -12 0z"/>
<path d="M5810 4335 c0 -8 5 -15 10 -15 6 0 10 7 10 15 0 8 -4 15 -10 15 -5 0
-10 -7 -10 -15z"/>
<path d="M6665 4341 c-6 -11 9 -23 19 -14 9 9 7 23 -3 23 -6 0 -12 -4 -16 -9z"/>
<path d="M4607 4343 c-13 -12 -7 -33 8 -33 8 0 15 9 15 20 0 20 -11 26 -23 13z"/>
<path d="M5250 3910 c0 -5 7 -7 15 -4 9 4 15 0 15 -9 0 -8 -7 -20 -15 -27 -24
-20 -18 -40 13 -39 16 1 20 3 10 6 -22 6 -22 12 -2 34 9 10 14 25 11 34 -7 16
-47 21 -47 5z"/>
<path d="M4908 3853 c7 -3 16 -2 19 1 4 3 -2 6 -13 5 -11 0 -14 -3 -6 -6z"/>
<path d="M4384 3896 c-10 -25 4 -50 20 -37 7 6 16 7 20 3 5 -4 6 4 4 18 -3 28
-35 40 -44 16z"/>
<path d="M9392 3482 c-20 -13 226 -36 258 -24 22 8 21 10 -20 15 -92 13 -225
18 -238 9z"/>
<path d="M9198 3443 c7 -3 16 -2 19 1 4 3 -2 6 -13 5 -11 0 -14 -3 -6 -6z"/>
<path d="M9288 3443 c7 -3 16 -2 19 1 4 3 -2 6 -13 5 -11 0 -14 -3 -6 -6z"/>
<path d="M9258 3403 c7 -3 16 -2 19 1 4 3 -2 6 -13 5 -11 0 -14 -3 -6 -6z"/>
<path d="M9348 3383 c6 -2 18 -2 25 0 6 3 1 5 -13 5 -14 0 -19 -2 -12 -5z"/>
<path d="M6413 1584 c-7 -18 11 -39 26 -30 17 11 13 46 -4 46 -9 0 -18 -7 -22
-16z"/>
<path d="M5705 1561 c-6 -11 9 -23 19 -14 9 9 7 23 -3 23 -6 0 -12 -4 -16 -9z"/>
<path d="M6028 1593 c7 -3 16 -2 19 1 4 3 -2 6 -13 5 -11 0 -14 -3 -6 -6z"/>
<path d="M6020 1562 c0 -14 11 -21 26 -15 21 8 17 23 -6 23 -11 0 -20 -4 -20
-8z"/>
<path d="M6123 1584 c-7 -18 11 -39 26 -30 17 11 13 46 -4 46 -9 0 -18 -7 -22
-16z"/>
<path d="M6240 1555 c0 -9 6 -12 15 -9 8 4 12 10 9 15 -8 14 -24 10 -24 -6z"/>
<path d="M6538 1593 c7 -3 16 -2 19 1 4 3 -2 6 -13 5 -11 0 -14 -3 -6 -6z"/>
</g>
</svg>
